<svg width="48" height="48" viewBox="0 0 48 48" fill="none" xmlns="http://www.w3.org/2000/svg">
<path d="M0 6C0 4.4087 0.632141 2.88258 1.75736 1.75736C2.88258 0.632141 4.4087 0 6 0L42 0C43.5913 0 45.1174 0.632141 46.2426 1.75736C47.3679 2.88258 48 4.4087 48 6V30C48 31.5913 47.3679 33.1174 46.2426 34.2426C45.1174 35.3679 43.5913 36 42 36H34.5C34.0343 36 33.5749 36.1084 33.1584 36.3167C32.7418 36.525 32.3794 36.8274 32.1 37.2L26.4 44.799C26.1206 45.1716 25.7582 45.474 25.3416 45.6823C24.9251 45.8906 24.4657 45.999 24 45.999C23.5343 45.999 23.0749 45.8906 22.6584 45.6823C22.2418 45.474 21.8794 45.1716 21.6 44.799L15.9 37.2C15.6206 36.8274 15.2582 36.525 14.8416 36.3167C14.4251 36.1084 13.9657 36 13.5 36H6C4.4087 36 2.88258 35.3679 1.75736 34.2426C0.632141 33.1174 0 31.5913 0 30V6ZM10.5 9C10.1022 9 9.72064 9.15804 9.43934 9.43934C9.15804 9.72064 9 10.1022 9 10.5C9 10.8978 9.15804 11.2794 9.43934 11.5607C9.72064 11.842 10.1022 12 10.5 12H37.5C37.8978 12 38.2794 11.842 38.5607 11.5607C38.842 11.2794 39 10.8978 39 10.5C39 10.1022 38.842 9.72064 38.5607 9.43934C38.2794 9.15804 37.8978 9 37.5 9H10.5ZM10.5 16.5C10.1022 16.5 9.72064 16.658 9.43934 16.9393C9.15804 17.2206 9 17.6022 9 18C9 18.3978 9.15804 18.7794 9.43934 19.0607C9.72064 19.342 10.1022 19.5 10.5 19.5H37.5C37.8978 19.5 38.2794 19.342 38.5607 19.0607C38.842 18.7794 39 18.3978 39 18C39 17.6022 38.842 17.2206 38.5607 16.9393C38.2794 16.658 37.8978 16.5 37.5 16.5H10.5ZM10.5 24C10.1022 24 9.72064 24.158 9.43934 24.4393C9.15804 24.7206 9 25.1022 9 25.5C9 25.8978 9.15804 26.2794 9.43934 26.5607C9.72064 26.842 10.1022 27 10.5 27H25.5C25.8978 27 26.2794 26.842 26.5607 26.5607C26.842 26.2794 27 25.8978 27 25.5C27 25.1022 26.842 24.7206 26.5607 24.4393C26.2794 24.158 25.8978 24 25.5 24H10.5Z" fill="#0033FF"/>
</svg>
