<svg width="48" height="48" viewBox="0 0 48 48" fill="none" xmlns="http://www.w3.org/2000/svg">
<path d="M0.15 10.665C0.452455 9.33973 1.19597 8.15644 2.25876 7.30893C3.32156 6.46141 4.64065 5.99991 6 6H42C43.3593 5.99991 44.6784 6.46141 45.7412 7.30893C46.804 8.15644 47.5475 9.33973 47.85 10.665L24 25.242L0.15 10.665ZM0 14.091V35.403L17.409 24.729L0 14.091ZM20.283 26.49L0.573 38.571C1.05998 39.5979 1.82858 40.4653 2.78934 41.0723C3.75011 41.6794 4.86352 42.0011 6 42H42C43.1363 42.0003 44.2493 41.6778 45.2095 41.0703C46.1697 40.4627 46.9377 39.595 47.424 38.568L27.714 26.487L24 28.758L20.283 26.49ZM30.591 24.732L48 35.403V14.091L30.591 24.729V24.732Z" fill="#0033FF"/>
</svg>
