<svg width="48" height="48" viewBox="0 0 48 48" fill="none" xmlns="http://www.w3.org/2000/svg">
<path d="M15.078 45C33.192 45 43.101 29.991 43.101 16.998C43.101 16.578 43.101 16.152 43.083 15.732C45.0122 14.3355 46.6772 12.6065 48 10.626C46.1979 11.4206 44.2883 11.9442 42.333 12.18C44.3926 10.9489 45.9352 9.01191 46.674 6.729C44.739 7.87538 42.621 8.68012 40.413 9.108C38.9285 7.52708 36.9642 6.47976 34.8243 6.12828C32.6843 5.7768 30.4882 6.14077 28.576 7.16382C26.6639 8.18686 25.1424 9.81189 24.2473 11.7872C23.3523 13.7625 23.1335 15.9778 23.625 18.09C19.7092 17.8937 15.8784 16.8764 12.3811 15.1042C8.88381 13.3321 5.79805 10.8445 3.324 7.803C2.06802 9.97225 1.68472 12.5382 2.25194 14.9798C2.81916 17.4214 4.29436 19.5556 6.378 20.949C4.81662 20.896 3.28956 20.4767 1.92 19.725V19.86C1.92269 22.1324 2.70992 24.3343 4.14862 26.0933C5.58732 27.8523 7.58924 29.0606 9.816 29.514C8.97079 29.7468 8.09769 29.8629 7.221 29.859C6.60295 29.8609 5.98614 29.8036 5.379 29.688C6.00836 31.6442 7.23382 33.3545 8.88374 34.5794C10.5337 35.8044 12.5254 36.4826 14.58 36.519C11.0897 39.2604 6.7782 40.7472 2.34 40.74C1.55796 40.7433 0.776469 40.6982 0 40.605C4.50454 43.4768 9.73589 45.0017 15.078 45Z" fill="#0033FF"/>
</svg>
