<svg width="16" height="16" viewBox="0 0 16 16" fill="none" xmlns="http://www.w3.org/2000/svg">
<g clip-path="url(#clip0_1067_345)">
<path d="M16 8.049C16 3.603 12.418 -0.000999451 8.00005 -0.000999451C3.58005 5.49364e-07 -0.00195312 3.603 -0.00195312 8.05C-0.00195312 12.067 2.92405 15.397 6.74805 16.001V10.376H4.71805V8.05H6.75005V6.275C6.75005 4.258 7.94505 3.144 9.77205 3.144C10.648 3.144 11.563 3.301 11.563 3.301V5.281H10.554C9.56105 5.281 9.25105 5.902 9.25105 6.539V8.049H11.469L11.115 10.375H9.25005V16C13.074 15.396 16 12.066 16 8.049Z" fill="#6C757D"/>
</g>
<defs>
<clipPath id="clip0_1067_345">
<rect width="16" height="16" fill="white"/>
</clipPath>
</defs>
</svg>
