<svg width="16" height="16" viewBox="0 0 16 16" fill="none" xmlns="http://www.w3.org/2000/svg">
<g clip-path="url(#clip0_1067_347)">
<path d="M0 1.146C0 0.513 0.526 0 1.175 0H14.825C15.474 0 16 0.513 16 1.146V14.854C16 15.487 15.474 16 14.825 16H1.175C0.526 16 0 15.487 0 14.854V1.146ZM4.943 13.394V6.169H2.542V13.394H4.943ZM3.743 5.182C4.58 5.182 5.101 4.628 5.101 3.934C5.086 3.225 4.581 2.686 3.759 2.686C2.937 2.686 2.4 3.226 2.4 3.934C2.4 4.628 2.921 5.182 3.727 5.182H3.743ZM8.651 13.394V9.359C8.651 9.143 8.667 8.927 8.731 8.773C8.904 8.342 9.299 7.895 9.963 7.895C10.832 7.895 11.179 8.557 11.179 9.529V13.394H13.58V9.25C13.58 7.03 12.396 5.998 10.816 5.998C9.542 5.998 8.971 6.698 8.651 7.191V7.216H8.635C8.64031 7.20765 8.64564 7.19932 8.651 7.191V6.169H6.251C6.281 6.847 6.251 13.394 6.251 13.394H8.651Z" fill="#6C757D"/>
</g>
<defs>
<clipPath id="clip0_1067_347">
<rect width="16" height="16" fill="white"/>
</clipPath>
</defs>
</svg>
