<svg width="24" height="24" viewBox="0 0 24 24" fill="none" xmlns="http://www.w3.org/2000/svg">
<g clip-path="url(#clip0_515_189)">
<path d="M20.3175 4.3605C18.7613 3.6463 17.1191 3.13656 15.432 2.844C15.4167 2.84142 15.401 2.84365 15.3871 2.85036C15.3731 2.85708 15.3615 2.86795 15.354 2.8815C15.1425 3.2565 14.9085 3.747 14.745 4.131C12.9264 3.85501 11.0766 3.85501 9.25801 4.131C9.07563 3.70323 8.8693 3.28607 8.64001 2.8815C8.63231 2.8681 8.62074 2.85735 8.60682 2.85066C8.5929 2.84396 8.57728 2.84164 8.56201 2.844C6.87451 3.135 5.23201 3.645 3.67651 4.3605C3.6632 4.36558 3.65206 4.37512 3.64501 4.3875C0.534009 9.036 -0.319491 13.5705 0.0990092 18.048C0.100509 18.069 0.114009 18.09 0.130509 18.1035C1.9421 19.4454 3.9684 20.47 6.12301 21.1335C6.13822 21.1383 6.15457 21.1381 6.16967 21.133C6.18478 21.1279 6.19786 21.1181 6.20701 21.105C6.66901 20.475 7.08001 19.8105 7.43401 19.1115C7.44139 19.0971 7.44391 19.0807 7.44121 19.0648C7.43851 19.0488 7.43072 19.0342 7.41901 19.023C7.41126 19.0157 7.40206 19.0101 7.39201 19.0065C6.74575 18.7581 6.11985 18.4597 5.52001 18.114C5.50325 18.1045 5.49079 18.0889 5.48521 18.0705C5.47962 18.0521 5.48134 18.0322 5.49001 18.015C5.49511 18.0038 5.50283 17.9941 5.51251 17.9865C5.63851 17.892 5.76451 17.793 5.88451 17.694C5.89511 17.6855 5.90783 17.68 5.9213 17.6781C5.93478 17.6763 5.9485 17.6781 5.96101 17.6835C9.88951 19.4775 14.142 19.4775 18.0225 17.6835C18.0355 17.6779 18.0497 17.6759 18.0637 17.6777C18.0777 17.6796 18.091 17.6852 18.102 17.694C18.222 17.793 18.348 17.892 18.474 17.9865C18.4842 17.994 18.4924 18.0038 18.4979 18.0152C18.5033 18.0266 18.5059 18.0392 18.5053 18.0519C18.5047 18.0645 18.501 18.0768 18.4945 18.0876C18.488 18.0985 18.4789 18.1075 18.468 18.114C17.8695 18.4629 17.2428 18.7609 16.5945 19.005C16.5842 19.0087 16.5748 19.0147 16.567 19.0225C16.5592 19.0303 16.5533 19.0397 16.5495 19.05C16.546 19.06 16.5446 19.0706 16.5454 19.0812C16.5462 19.0918 16.5491 19.1021 16.554 19.1115C16.914 19.809 17.3265 20.475 17.7795 21.105C17.7887 21.1181 17.8017 21.1279 17.8168 21.133C17.8319 21.1381 17.8483 21.1383 17.8635 21.1335C20.0217 20.472 22.0513 19.4473 23.865 18.1035C23.8741 18.0972 23.8816 18.089 23.8871 18.0793C23.8926 18.0697 23.8958 18.059 23.8965 18.048C24.3975 12.8715 23.058 8.3745 20.3475 4.389C20.3448 4.38242 20.3407 4.37648 20.3355 4.37157C20.3304 4.36666 20.3242 4.36289 20.3175 4.3605ZM8.02051 15.321C6.83701 15.321 5.86351 14.235 5.86351 12.903C5.86351 11.5695 6.81901 10.4835 8.02051 10.4835C9.23101 10.4835 10.1955 11.5785 10.1775 12.903C10.1775 14.235 9.22201 15.321 8.02051 15.321ZM15.9945 15.321C14.8125 15.321 13.8375 14.235 13.8375 12.903C13.8375 11.5695 14.793 10.4835 15.9945 10.4835C17.205 10.4835 18.171 11.5785 18.1515 12.903C18.1515 14.235 17.205 15.321 15.9945 15.321Z" fill="white" fill-opacity="0.75"/>
</g>
<defs>
<clipPath id="clip0_515_189">
<rect width="24" height="24" fill="white"/>
</clipPath>
</defs>
</svg>
